# xmcd
#
# Track frame offsets: 
#        150
#        13250
#        31850
#        46167
#        63957
#        83187
#        95160
#        111887
#        127707
#        143747
#        163220
#        178175
#        191885
#        208075
#
# Disc length: 3290 seconds
#
# Revision: 1
# Processed by: cddbd v1.5.2PL0 Copyright (c) Steve Scherf et al.
# Submitted via: ExactAudioCopyFreeDBPlugin 1.0
#
DISCID=c40cd80e
DTITLE=Yello - Touch Yello
DYEAR=2009
DGENRE=Electronic
TTITLE0=The Expert
TTITLE1=Yello (feat. Heidi Happy) - You Better Hide
TTITLE2=Out Of Dawn
TTITLE3=Bostich (Reflected)
TTITLE4=Yello (feat. Till Brönner) - Till Tomorrow
TTITLE5=Tangier Blue
TTITLE6=Part Love
TTITLE7=Friday Smile
TTITLE8=Yello (feat. Heidi Happy) - Kiss In Blue
TTITLE9=Yello (feat. Till Brönner) - Vertical Vision
TTITLE10=Trackless Deep
TTITLE11=Yello (feat. Heidi Happy) - Stay
TTITLE12=Yello (feat. Till Brönner) - Electric Frame
TTITLE13=Yello (feat. Dorothee Oberlinger) - Takla Makan
EXTD=
EXTT0=
EXTT1=
EXTT2=
EXTT3=
EXTT4=
EXTT5=
EXTT6=
EXTT7=
EXTT8=
EXTT9=
EXTT10=
EXTT11=
EXTT12=
EXTT13=
PLAYORDER=
